{"glyphs":{":":{"x_min":0,"x_max":182,"ha":182,"o":"m 120 277 l 64 277 l 64 340 l 120 340 z m 120 0 l 64 0 l 64 62 l 120 62 z"},"$":{"x_min":0,"x_max":365,"ha":365,"o":"m 192 -8 l 192 -66 l 168 -66 l 168 -8 q 46 -4 25 127 l 64 132 q 85 33 168 25 l 168 226 q 133 235 112 243 q 91 251 73 265 q 55 280 46 302 q 36 324 36 352 q 36 389 51 415 q 67 442 96 458 q 125 474 168 477 l 168 505 l 192 505 l 192 477 q 292 468 316 365 l 276 360 q 260 432 192 442 l 192 260 q 276 235 302 205 q 329 174 329 128 q 329 70 293 35 q 257 -1 192 -8 z m 168 267 l 168 443 q 74 436 74 353 q 74 337 79 324 q 84 311 94 300 q 105 289 123 281 q 141 273 168 267 z m 192 219 l 192 25 q 291 38 291 125 q 291 146 283 163 q 275 180 257 193 q 240 205 192 219 z"},"?":{"x_min":0,"x_max":328,"ha":328,"o":"m 179 116 l 138 116 l 138 143 q 139 159 142 174 q 145 188 151 200 q 156 213 169 227 q 181 242 199 259 q 257 311 257 352 q 257 389 231 415 q 205 440 167 440 q 95 440 72 345 l 28 352 q 58 477 171 477 q 210 477 240 461 q 269 445 285 418 q 302 390 302 353 q 302 296 236 234 q 215 215 201 198 q 188 182 184 162 q 179 142 179 116 z m 189 0 l 133 0 l 133 62 l 189 62 z"},"<":{"x_min":0,"x_max":433,"ha":433,"o":"m 387 72 l 43 217 l 43 243 l 387 389 l 387 356 l 83 230 l 387 104 z"},"'":{"x_min":0,"x_max":146,"ha":146,"o":"m 95 393 l 86 307 l 58 307 l 48 393 l 48 469 l 95 469 z"},"=":{"x_min":0,"x_max":433,"ha":433,"o":"m 387 295 l 43 295 l 43 323 l 387 323 z m 387 137 l 43 137 l 43 167 l 387 167 z"},"a":{"x_min":0,"x_max":365,"ha":365,"o":"m 332 0 l 289 0 q 279 24 276 52 q 221 -8 137 -8 q 107 -8 83 3 q 59 14 44 35 q 30 56 30 87 q 30 108 36 125 q 43 142 57 155 q 71 168 94 177 q 117 186 177 194 q 244 204 272 214 q 272 243 271 259 q 269 274 260 288 q 250 302 231 309 q 212 316 184 316 q 95 316 78 241 l 37 247 q 56 347 183 347 q 223 347 251 338 q 278 329 291 312 q 304 296 308 271 q 312 246 312 203 l 311 107 q 311 69 315 49 q 319 28 332 0 z m 272 161 l 272 183 q 238 170 165 157 q 126 150 108 143 q 90 136 81 122 q 72 108 72 90 q 72 62 92 45 q 113 28 146 28 q 165 28 183 33 q 202 38 219 48 q 237 58 249 72 q 261 86 267 108 q 272 130 272 161 z"},"L":{"x_min":0,"x_max":365,"ha":365,"o":"m 337 0 l 57 0 l 57 469 l 101 469 l 101 38 l 337 38 z"},"3":{"x_min":0,"x_max":365,"ha":365,"o":"m 32 119 l 71 125 q 93 25 178 25 q 210 25 234 39 q 259 54 273 79 q 287 104 287 137 q 287 181 258 208 q 230 234 184 234 q 168 234 142 229 l 146 264 q 182 264 203 270 q 223 277 237 288 q 252 300 259 316 q 266 332 266 353 q 266 390 241 413 q 216 436 177 436 q 102 436 78 344 l 38 351 q 67 469 177 469 q 237 469 272 437 q 308 405 308 350 q 308 284 239 252 q 331 229 331 138 q 331 72 288 32 q 246 -8 178 -8 q 58 -8 32 119 z"},";":{"x_min":0,"x_max":182,"ha":182,"o":"m 122 277 l 66 277 l 66 340 l 122 340 z m 80 -87 l 63 -64 q 79 -52 85 -40 q 91 -28 92 0 l 66 0 l 66 62 l 122 62 l 122 0 q 122 -57 80 -87 z"},"J":{"x_min":0,"x_max":328,"ha":328,"o":"m 16 129 l 56 134 q 63 29 143 29 q 226 29 226 134 l 226 469 l 270 469 l 270 134 q 270 -8 138 -8 q 23 -8 16 129 z"},"V":{"x_min":0,"x_max":400,"ha":400,"o":"m 398 469 l 223 0 l 177 0 l 5 469 l 52 469 l 200 48 l 353 469 z"},"\"":{"x_min":0,"x_max":182,"ha":182,"o":"m 159 393 l 149 306 l 120 306 l 110 393 l 110 469 l 159 469 z m 73 393 l 64 306 l 35 306 l 26 393 l 26 469 l 73 469 z"},"7":{"x_min":0,"x_max":365,"ha":365,"o":"m 332 437 q 243 335 201 230 q 158 124 148 0 l 105 0 q 109 54 119 104 q 130 155 147 202 q 164 250 190 296 q 217 343 281 427 l 35 427 l 35 463 l 332 463 z"},"S":{"x_min":0,"x_max":400,"ha":400,"o":"m 30 141 l 74 145 q 79 87 113 58 q 146 29 201 29 q 241 29 269 41 q 297 53 312 77 q 327 100 327 127 q 327 198 204 220 q 121 235 85 266 q 49 297 49 352 q 49 410 91 443 q 133 477 198 477 q 271 477 311 444 q 352 412 355 345 l 312 343 q 304 440 202 440 q 154 440 123 418 q 92 395 92 356 q 92 289 204 266 q 287 249 328 219 q 369 188 369 130 q 369 99 358 74 q 347 49 325 31 q 302 12 272 2 q 241 -8 204 -8 q 44 -8 30 141 z"},"}":{"x_min":0,"x_max":218,"ha":218,"o":"m 186 182 q 125 182 125 76 l 125 37 q 125 -1 123 -22 q 121 -43 112 -64 q 103 -84 85 -94 q 68 -105 42 -105 q 37 -105 31 -104 l 31 -68 q 49 -68 63 -62 q 76 -56 82 -42 q 89 -28 89 37 q 89 86 93 116 q 97 145 105 160 q 113 174 124 185 q 136 196 152 203 q 132 212 119 227 q 105 241 98 259 q 92 277 90 296 q 88 314 88 350 l 89 378 q 89 429 85 443 q 81 458 68 465 q 54 473 31 474 l 31 510 q 61 510 81 501 q 102 491 113 471 q 125 451 125 399 l 125 332 q 125 287 133 263 q 141 239 155 231 q 169 224 186 224 z"},"Z":{"x_min":0,"x_max":400,"ha":400,"o":"m 381 0 l 16 0 l 16 41 l 320 431 l 43 431 l 43 469 l 374 469 l 374 431 l 68 38 l 381 38 z"},"x":{"x_min":0,"x_max":328,"ha":328,"o":"m 322 0 l 272 0 l 164 148 l 55 0 l 5 0 l 141 177 l 15 340 l 65 340 l 164 209 l 263 340 l 312 340 l 187 181 z"},")":{"x_min":0,"x_max":218,"ha":218,"o":"m 58 -105 l 29 -105 q 127 52 127 208 q 127 365 26 510 l 58 510 q 169 357 169 205 q 169 120 141 47 q 112 -26 58 -105 z"},"&":{"x_min":0,"x_max":437,"ha":437,"o":"m 418 27 l 390 -8 q 353 22 315 65 q 261 -8 186 -8 q 142 -8 108 11 q 75 30 56 60 q 37 90 37 129 q 37 149 42 166 q 48 183 59 199 q 70 214 90 230 q 110 246 146 267 q 121 300 108 325 q 95 350 95 371 q 95 416 126 447 q 157 477 202 477 q 234 477 258 464 q 281 450 295 428 q 308 405 308 374 q 308 309 207 259 q 250 206 311 135 q 319 151 330 173 l 346 217 l 387 209 q 365 146 340 103 l 377 63 q 390 50 418 27 z m 265 376 q 265 403 247 422 q 230 440 203 440 q 176 440 157 422 q 137 403 137 376 q 137 368 141 358 q 144 347 152 334 q 159 322 184 288 q 265 330 265 376 z m 287 96 q 224 160 168 237 q 114 207 97 184 q 80 161 80 136 q 80 94 111 61 q 141 29 182 29 q 242 29 287 96 z"},"_":{"x_min":0,"x_max":328,"ha":328,"o":"m 332 -82 l -4 -82 l -4 -49 l 332 -49 z"},"v":{"x_min":0,"x_max":328,"ha":328,"o":"m 318 340 l 182 0 l 145 0 l 9 340 l 52 340 l 164 49 l 276 340 z"},"O":{"x_min":0,"x_max":510,"ha":510,"o":"m 474 234 q 474 125 416 58 q 358 -8 256 -8 q 188 -8 141 21 q 93 51 65 105 q 38 159 38 234 q 38 344 96 411 q 155 477 256 477 q 324 477 373 447 q 421 417 448 363 q 474 309 474 234 z m 428 234 q 428 327 382 384 q 336 440 256 440 q 175 440 130 383 q 84 326 84 234 q 84 143 130 86 q 177 29 256 29 q 308 29 346 54 q 384 79 406 125 q 428 172 428 234 z"},"(":{"x_min":0,"x_max":218,"ha":218,"o":"m 192 -105 l 161 -105 q 50 48 50 200 q 50 252 60 300 q 71 347 96 400 q 121 453 161 510 l 190 510 q 92 354 92 198 q 92 40 192 -105 z"},"C":{"x_min":0,"x_max":473,"ha":473,"o":"m 444 147 q 398 -8 250 -8 q 200 -8 161 8 q 123 23 96 54 q 69 85 52 133 q 36 181 36 234 q 36 341 94 409 q 153 477 251 477 q 318 477 365 444 q 412 411 438 340 l 396 328 q 356 440 254 440 q 175 440 129 382 q 82 323 82 233 q 82 132 129 80 q 176 29 248 29 q 365 29 404 158 z"},"W":{"x_min":0,"x_max":583,"ha":583,"o":"m 573 469 l 448 0 l 403 0 l 291 419 l 176 0 l 132 0 l 7 469 l 52 469 l 154 63 l 263 469 l 317 469 l 426 65 l 531 469 z"},"A":{"x_min":0,"x_max":437,"ha":437,"o":"m 437 0 l 387 0 l 326 149 l 107 149 l 48 0 l 0 0 l 191 469 l 237 469 z m 311 186 l 213 422 l 121 186 z"},"f":{"x_min":0,"x_max":182,"ha":182,"o":"m 197 469 l 191 437 q 168 440 157 440 q 140 440 129 435 q 118 430 111 417 q 105 405 105 369 l 105 340 l 176 340 l 176 310 l 105 310 l 105 0 l 65 0 l 65 310 l 11 310 l 11 340 l 65 340 l 65 375 q 65 411 72 431 q 79 451 99 464 q 119 477 148 477 q 165 477 197 469 z"},"Q":{"x_min":0,"x_max":510,"ha":510,"o":"m 485 0 l 472 -31 q 430 -16 375 23 q 325 -8 256 -8 q 205 -8 165 9 q 125 25 96 58 q 67 91 52 135 q 38 179 38 234 q 38 344 96 411 q 155 477 256 477 q 324 477 372 448 q 420 419 447 364 q 474 310 474 234 q 474 116 405 47 q 445 19 485 0 z m 338 50 q 304 76 260 90 l 270 123 q 317 113 369 72 q 428 128 428 234 q 428 298 406 344 q 384 391 346 416 q 308 440 256 440 q 176 440 130 383 q 84 325 84 234 q 84 143 130 86 q 177 29 256 29 q 298 29 338 50 z"},"w":{"x_min":0,"x_max":473,"ha":473,"o":"m 468 340 l 354 0 l 313 0 l 235 279 l 158 0 l 117 0 l 3 340 l 45 340 l 136 50 l 217 340 l 254 340 l 335 50 l 427 340 z"},"-":{"x_min":0,"x_max":218,"ha":218,"o":"m 195 161 l 24 161 l 24 203 l 195 203 z"},"E":{"x_min":0,"x_max":400,"ha":400,"o":"m 369 0 l 59 0 l 59 469 l 359 469 l 359 429 l 104 429 l 104 261 l 340 261 l 340 222 l 104 222 l 104 39 l 369 39 z"},"s":{"x_min":0,"x_max":328,"ha":328,"o":"m 24 92 l 65 99 q 74 60 100 42 q 126 25 165 25 q 191 25 212 33 q 232 42 243 57 q 254 71 254 91 q 254 109 241 122 q 229 135 209 142 q 188 149 151 157 q 35 181 35 252 q 35 296 69 322 q 104 347 155 347 q 258 347 281 258 l 242 252 q 231 288 213 301 q 194 315 156 315 q 132 315 113 307 q 94 300 85 288 q 75 276 75 260 q 75 243 84 232 q 92 220 117 211 q 141 201 179 193 q 252 176 274 152 q 296 128 296 96 q 296 64 280 41 q 264 18 234 5 q 204 -8 163 -8 q 137 -8 115 -3 q 94 2 76 12 q 59 23 46 41 q 32 59 24 92 z"},">":{"x_min":0,"x_max":433,"ha":433,"o":"m 387 218 l 43 72 l 43 104 l 347 231 l 43 356 l 43 389 l 387 244 z"},"l":{"x_min":0,"x_max":146,"ha":146,"o":"m 92 0 l 52 0 l 52 469 l 92 469 z"},"8":{"x_min":0,"x_max":365,"ha":365,"o":"m 115 252 q 49 282 49 348 q 49 384 66 411 q 83 438 113 453 q 142 469 181 469 q 219 469 249 453 q 279 437 296 411 q 313 384 313 348 q 313 282 246 252 q 332 223 332 135 q 332 65 286 28 q 241 -8 181 -8 q 136 -8 104 8 q 71 25 50 60 q 30 94 30 135 q 30 177 49 206 q 69 236 115 252 z m 272 348 q 272 374 260 394 q 249 414 228 425 q 208 436 180 436 q 153 436 133 425 q 112 413 101 394 q 89 374 89 348 q 89 312 115 289 q 142 267 180 267 q 219 267 246 289 q 272 312 272 348 z m 290 132 q 290 163 277 186 q 263 208 239 221 q 215 233 180 233 q 146 233 122 221 q 97 208 84 186 q 71 163 71 132 q 71 83 101 54 q 131 25 180 25 q 230 25 260 54 q 290 83 290 132 z"},"\\":{"x_min":0,"x_max":182,"ha":182,"o":"m 184 -12 l 154 -12 l 0 477 l 31 477 z"},"e":{"x_min":0,"x_max":365,"ha":365,"o":"m 333 165 l 72 165 q 73 99 103 62 q 133 25 186 25 q 260 25 290 107 l 329 101 q 309 43 273 18 q 237 -8 184 -8 q 112 -8 71 40 q 30 88 30 170 q 30 252 71 300 q 112 347 185 347 q 332 347 333 165 z m 290 198 q 281 315 184 315 q 139 315 109 285 q 79 254 73 198 z"},"b":{"x_min":0,"x_max":400,"ha":400,"o":"m 93 52 l 93 0 l 53 0 l 53 469 l 93 469 l 93 284 q 144 347 220 347 q 292 347 332 298 q 371 248 371 173 q 371 91 330 42 q 290 -8 217 -8 q 142 -8 93 52 z m 330 169 q 330 233 299 273 q 269 314 216 314 q 158 314 125 274 q 92 234 92 165 q 92 100 125 63 q 157 25 213 25 q 240 25 261 36 q 283 46 298 66 q 314 87 322 113 q 330 138 330 169 z"},"%":{"x_min":0,"x_max":583,"ha":583,"o":"m 444 477 l 170 -17 l 137 -17 l 411 477 z m 233 353 q 233 231 137 231 q 114 231 97 239 q 79 247 66 263 q 54 280 47 302 q 41 323 41 351 q 41 407 66 442 q 91 477 137 477 q 183 477 208 443 q 233 410 233 353 z m 198 352 q 198 446 138 446 q 76 446 76 354 q 76 259 138 259 q 198 259 198 352 z m 540 105 q 540 -17 443 -17 q 398 -17 373 16 q 347 49 347 103 q 347 142 360 171 q 372 199 393 214 q 414 229 443 229 q 468 229 486 219 q 505 210 517 192 q 529 175 534 153 q 540 131 540 105 z m 504 104 q 504 199 444 199 q 383 199 383 106 q 383 11 444 11 q 504 11 504 104 z"},"m":{"x_min":0,"x_max":546,"ha":546,"o":"m 494 0 l 454 0 l 454 210 q 454 257 446 276 q 439 294 423 304 q 406 313 384 313 q 353 313 332 296 q 311 278 302 248 q 293 218 293 167 l 293 0 l 254 0 l 254 215 q 254 250 248 270 q 242 290 226 301 q 210 312 186 312 q 143 312 118 277 q 92 241 92 181 l 92 0 l 52 0 l 52 340 l 92 340 l 92 291 q 135 347 196 347 q 261 347 286 291 q 332 347 393 347 q 494 347 494 231 z"},"#":{"x_min":0,"x_max":365,"ha":365,"o":"m 346 137 l 254 137 l 226 4 l 197 4 l 226 137 l 100 137 l 71 4 l 42 4 l 71 137 l 15 137 l 15 167 l 76 167 l 102 294 l 15 294 l 15 324 l 108 324 l 136 458 l 166 458 l 138 324 l 262 324 l 291 458 l 322 458 l 294 324 l 346 324 l 346 294 l 288 294 l 262 167 l 346 167 z m 257 294 l 132 294 l 105 167 l 231 167 z"},",":{"x_min":0,"x_max":182,"ha":182,"o":"m 80 -87 l 63 -64 q 79 -52 85 -40 q 91 -28 92 0 l 66 0 l 66 62 l 122 62 l 122 0 q 122 -57 80 -87 z"},"n":{"x_min":0,"x_max":365,"ha":365,"o":"m 315 0 l 275 0 l 275 211 q 275 266 254 289 q 232 312 196 312 q 177 312 160 306 q 143 299 128 286 q 114 273 105 256 q 97 239 94 219 q 90 198 90 147 l 90 0 l 50 0 l 50 340 l 90 340 l 90 290 q 136 347 200 347 q 315 347 315 222 z"},"h":{"x_min":0,"x_max":365,"ha":365,"o":"m 315 0 l 275 0 l 275 211 q 275 266 254 289 q 232 312 196 312 q 177 312 160 306 q 143 299 128 286 q 114 273 105 256 q 97 239 94 219 q 90 198 90 147 l 90 0 l 50 0 l 50 469 l 90 469 l 90 290 q 136 347 200 347 q 315 347 315 222 z"},"z":{"x_min":0,"x_max":328,"ha":328,"o":"m 312 0 l 14 0 l 14 35 l 247 306 l 27 306 l 27 340 l 302 340 l 302 313 l 66 35 l 312 35 z"},"B":{"x_min":0,"x_max":437,"ha":437,"o":"m 56 0 l 56 469 l 233 469 q 277 469 310 455 q 342 441 360 415 q 378 388 378 350 q 378 320 363 294 q 348 268 311 247 q 359 231 380 202 q 401 172 401 132 q 401 92 385 63 q 368 35 334 17 q 300 0 253 0 z m 102 429 l 102 263 l 239 263 q 269 263 290 273 q 311 284 322 302 q 334 321 334 348 q 334 369 327 384 q 320 400 306 410 q 292 420 270 425 q 248 429 216 429 z m 102 223 l 102 38 l 248 38 q 279 38 303 48 q 327 58 341 79 q 355 100 355 132 q 355 174 326 198 q 297 223 250 223 z"},"K":{"x_min":0,"x_max":437,"ha":437,"o":"m 436 0 l 377 0 l 187 250 l 102 174 l 102 0 l 58 0 l 58 469 l 102 469 l 102 224 l 367 469 l 427 469 l 216 277 z"},"R":{"x_min":0,"x_max":437,"ha":437,"o":"m 436 0 l 379 0 l 316 99 q 277 161 260 178 q 243 196 220 206 q 198 216 170 216 l 102 216 l 102 0 l 58 0 l 58 469 l 255 469 q 300 469 331 454 q 363 439 380 411 q 397 384 397 344 q 397 232 261 219 q 311 193 347 138 z m 102 430 l 102 254 l 226 254 q 350 254 350 344 q 350 363 344 378 q 337 394 323 407 q 308 419 285 425 q 262 430 228 430 z"},"T":{"x_min":0,"x_max":365,"ha":365,"o":"m 347 428 l 203 428 l 203 0 l 158 0 l 158 428 l 15 428 l 15 469 l 347 469 z"},"P":{"x_min":0,"x_max":400,"ha":400,"o":"m 104 198 l 104 0 l 59 0 l 59 469 l 222 469 q 293 469 333 434 q 373 399 373 335 q 373 306 363 281 q 353 256 335 237 q 316 218 287 208 q 257 198 222 198 z m 104 428 l 104 237 l 209 237 q 327 237 327 333 q 327 428 209 428 z"},"|":{"x_min":0,"x_max":146,"ha":146,"o":"m 88 -130 l 55 -130 l 55 469 l 88 469 z"},"t":{"x_min":0,"x_max":182,"ha":182,"o":"m 177 0 q 150 -5 134 -5 q 111 -5 94 2 q 78 10 70 26 q 62 41 62 82 l 62 310 l 14 310 l 14 340 l 62 340 l 62 427 l 102 452 l 102 340 l 166 340 l 166 310 l 102 310 l 102 87 q 102 63 105 51 q 108 40 117 34 q 125 28 140 28 q 151 28 171 32 z"},"M":{"x_min":0,"x_max":546,"ha":546,"o":"m 488 0 l 443 0 l 450 421 l 290 0 l 253 0 l 95 421 l 102 0 l 58 0 l 58 469 l 120 469 l 271 63 l 424 469 l 488 469 z"},"g":{"x_min":0,"x_max":400,"ha":400,"o":"m 46 -38 l 85 -45 q 98 -105 179 -105 q 310 -105 310 19 l 310 52 q 281 16 251 4 q 220 -8 183 -8 q 149 -8 121 4 q 94 16 74 41 q 53 65 43 97 q 32 129 32 169 q 32 222 52 264 q 72 306 105 327 q 138 347 183 347 q 222 347 253 333 q 284 319 310 282 l 310 340 l 349 340 l 349 27 q 349 -30 332 -66 q 315 -103 278 -120 q 242 -138 186 -138 q 53 -138 46 -38 z m 310 166 q 310 233 279 273 q 247 314 191 314 q 162 314 141 303 q 120 293 105 274 q 89 255 82 229 q 74 203 74 170 q 74 106 105 65 q 136 24 190 24 q 223 24 249 39 q 275 53 292 85 q 310 117 310 166 z"},"j":{"x_min":0,"x_max":146,"ha":146,"o":"m 92 410 l 52 410 l 52 469 l 92 469 z m -20 -131 l -12 -96 q 2 -100 13 -100 q 26 -100 34 -95 q 43 -90 47 -79 q 52 -68 52 -32 l 52 340 l 92 340 l 92 -27 q 92 -56 90 -74 q 89 -91 81 -106 q 73 -121 58 -130 q 43 -138 21 -138 q 7 -138 -20 -131 z"},"i":{"x_min":0,"x_max":146,"ha":146,"o":"m 92 409 l 52 409 l 52 469 l 92 469 z m 92 0 l 52 0 l 52 340 l 92 340 z"},"y":{"x_min":0,"x_max":328,"ha":328,"o":"m 322 340 l 188 0 l 162 -67 q 134 -138 83 -138 q 70 -138 45 -132 l 40 -92 q 64 -97 76 -97 q 95 -97 104 -90 q 113 -82 122 -60 l 145 0 l 11 340 l 55 340 l 167 46 l 283 340 z"},"@":{"x_min":0,"x_max":524,"ha":524,"o":"m 526 15 q 486 -48 422 -79 q 359 -111 278 -111 q 228 -111 184 -98 q 141 -85 106 -60 q 71 -36 48 -1 q 25 33 12 75 q 0 117 0 165 q 0 249 36 313 q 73 377 133 412 q 194 446 277 446 q 349 446 401 419 q 452 392 484 337 q 516 282 516 214 q 516 169 504 133 q 493 97 470 68 q 447 40 414 20 q 380 0 351 0 q 312 0 312 34 q 312 43 314 59 q 264 0 205 0 q 181 0 161 10 q 141 19 126 38 q 110 58 102 82 q 94 106 94 135 q 94 165 102 193 q 110 222 126 249 q 141 276 162 294 q 182 312 208 322 q 233 332 258 332 q 287 332 312 318 q 337 303 355 271 l 366 324 l 406 324 l 352 67 q 348 50 348 42 q 348 29 364 29 q 374 29 385 33 q 396 38 416 51 q 435 65 453 89 q 471 114 480 145 q 489 176 489 214 q 489 258 474 297 q 459 335 432 364 q 405 392 365 406 q 326 420 275 420 q 166 420 96 348 q 26 276 26 164 q 26 88 58 33 q 90 -23 146 -54 q 202 -85 279 -85 q 344 -85 397 -62 q 450 -40 493 15 z m 340 213 q 340 252 317 278 q 294 304 258 304 q 204 304 170 250 q 135 196 135 133 q 135 89 157 60 q 180 30 217 30 q 241 30 263 46 q 285 61 304 91 q 323 120 331 150 q 340 180 340 213 z"},".":{"x_min":0,"x_max":182,"ha":182,"o":"m 120 0 l 64 0 l 64 62 l 120 62 z"},"p":{"x_min":0,"x_max":400,"ha":400,"o":"m 93 52 l 93 -130 l 53 -130 l 53 340 l 93 340 l 93 284 q 145 347 220 347 q 254 347 281 337 q 307 326 328 303 q 348 281 359 247 q 371 214 371 173 q 371 91 330 42 q 290 -8 217 -8 q 142 -8 93 52 z m 330 169 q 330 213 315 246 q 301 279 276 297 q 251 314 216 314 q 187 314 165 304 q 142 295 126 275 q 109 256 101 228 q 92 200 92 165 q 92 100 125 63 q 157 25 213 25 q 240 25 261 36 q 283 46 298 66 q 314 87 322 113 q 330 138 330 169 z"},"X":{"x_min":0,"x_max":400,"ha":400,"o":"m 399 0 l 345 0 l 205 209 l 57 0 l 4 0 l 180 245 l 29 469 l 82 469 l 205 281 l 340 469 l 386 469 l 230 250 z"},"*":{"x_min":0,"x_max":255,"ha":255,"o":"m 228 390 l 187 378 l 147 369 l 174 336 l 202 304 l 174 282 l 150 318 l 127 355 l 83 282 l 53 304 l 79 336 l 108 369 l 66 378 l 25 390 l 37 423 l 75 407 l 115 390 l 108 477 l 144 477 l 139 390 l 177 407 l 217 423 z"},"Y":{"x_min":0,"x_max":400,"ha":400,"o":"m 397 469 l 221 202 l 221 0 l 176 0 l 176 202 l 5 469 l 58 469 l 201 244 l 347 469 z"},"c":{"x_min":0,"x_max":365,"ha":365,"o":"m 334 110 q 314 52 278 22 q 242 -8 182 -8 q 136 -8 103 11 q 70 30 49 71 q 29 113 29 170 q 29 207 38 237 q 46 267 58 285 q 70 304 86 317 q 102 330 125 339 q 147 347 184 347 q 295 347 329 244 l 287 237 q 265 314 182 314 q 156 314 135 304 q 115 294 100 275 q 86 256 78 231 q 71 206 71 174 q 71 107 100 66 q 130 25 184 25 q 261 25 294 116 z"},"!":{"x_min":0,"x_max":218,"ha":218,"o":"m 133 364 l 122 116 l 96 116 l 85 364 l 85 469 l 133 469 z m 137 0 l 82 0 l 82 62 l 137 62 z"},"/":{"x_min":0,"x_max":182,"ha":182,"o":"m 184 477 l 31 -12 l 0 -12 l 154 477 z"},"[":{"x_min":0,"x_max":218,"ha":218,"o":"m 201 -98 l 51 -98 l 51 503 l 201 503 l 201 469 l 90 469 l 90 -64 l 201 -64 z"},"6":{"x_min":0,"x_max":365,"ha":365,"o":"m 321 360 l 281 356 q 260 436 193 436 q 173 436 156 430 q 139 423 126 411 q 112 398 103 383 q 93 367 87 351 q 82 335 77 306 q 72 277 69 228 q 120 296 195 296 q 255 296 294 255 q 332 214 332 151 q 332 104 313 68 q 294 33 261 12 q 229 -8 185 -8 q 146 -8 116 7 q 86 22 66 52 q 46 82 37 122 q 29 161 29 218 q 29 301 46 354 q 64 408 102 438 q 140 469 195 469 q 298 469 321 360 z m 288 146 q 288 197 261 228 q 233 260 188 260 q 141 260 110 229 q 79 198 79 151 q 79 100 109 62 q 140 25 186 25 q 232 25 260 60 q 288 95 288 146 z"},"r":{"x_min":0,"x_max":218,"ha":218,"o":"m 227 327 l 211 292 q 181 305 166 305 q 154 305 144 302 q 134 298 125 290 q 116 281 110 270 q 104 259 101 246 q 97 233 95 207 q 92 181 92 160 l 92 0 l 52 0 l 52 340 l 87 340 l 87 271 q 113 347 167 347 q 195 347 227 327 z"},"2":{"x_min":0,"x_max":365,"ha":365,"o":"m 327 0 l 23 0 q 26 23 34 45 q 42 67 72 100 q 102 134 158 177 q 198 208 219 226 q 240 244 255 263 q 271 282 277 300 q 284 318 284 338 q 284 367 271 389 q 258 411 235 424 q 212 436 182 436 q 93 436 76 334 l 34 340 q 41 400 80 435 q 120 469 184 469 q 246 469 286 433 q 326 396 326 339 q 326 305 311 275 q 296 245 268 219 q 240 193 177 146 q 103 89 76 38 l 327 38 z"},"{":{"x_min":0,"x_max":218,"ha":218,"o":"m 187 -105 q 158 -105 137 -96 q 117 -86 105 -65 q 94 -44 94 6 l 94 73 q 94 116 87 139 q 80 162 67 172 q 54 181 32 181 l 32 224 q 62 224 78 249 q 94 274 94 330 l 94 397 q 94 447 105 469 q 115 491 137 500 q 158 510 187 510 l 187 474 q 166 473 153 467 q 141 460 135 445 q 130 430 130 368 q 130 267 111 240 q 92 214 67 202 q 82 195 93 185 q 105 175 113 162 q 121 148 125 130 q 130 112 130 56 l 130 27 q 130 -11 135 -33 q 139 -56 148 -62 q 158 -67 187 -69 z"},"9":{"x_min":0,"x_max":365,"ha":365,"o":"m 41 100 l 80 105 q 101 25 169 25 q 207 25 236 50 q 265 75 276 113 q 288 151 293 233 q 242 165 167 165 q 107 165 68 206 q 30 247 30 310 q 30 379 71 424 q 113 469 177 469 q 225 469 259 446 q 293 423 313 375 q 333 328 333 243 q 333 160 315 107 q 298 53 260 22 q 222 -8 167 -8 q 64 -8 41 100 z m 283 310 q 283 335 276 358 q 268 380 253 399 q 238 417 218 427 q 199 436 176 436 q 130 436 102 401 q 73 365 73 314 q 73 264 101 233 q 129 201 174 201 q 221 201 252 232 q 283 263 283 310 z"}," ":{"x_min":0,"x_max":182,"ha":182,"o":""},"I":{"x_min":0,"x_max":182,"ha":182,"o":"m 114 0 l 70 0 l 70 469 l 114 469 z"},"H":{"x_min":0,"x_max":473,"ha":473,"o":"m 415 0 l 372 0 l 372 228 l 100 228 l 100 0 l 56 0 l 56 469 l 100 469 l 100 267 l 372 267 l 372 469 l 415 469 z"},"4":{"x_min":0,"x_max":365,"ha":365,"o":"m 332 117 l 268 117 l 268 0 l 229 0 l 229 117 l 11 117 l 11 153 l 237 469 l 268 469 l 268 153 l 332 153 z m 229 153 l 229 404 l 50 153 z"},"~":{"x_min":0,"x_max":433,"ha":433,"o":"m 386 226 q 348 200 330 195 q 313 189 297 189 q 288 189 276 192 q 264 194 252 199 q 240 203 212 216 q 159 241 135 241 q 96 241 44 198 l 44 234 q 96 271 134 271 q 154 271 168 267 q 183 262 217 246 q 271 220 297 220 q 333 220 386 264 z"},"D":{"x_min":0,"x_max":473,"ha":473,"o":"m 57 0 l 57 469 l 237 469 q 305 469 350 437 q 395 405 415 352 q 435 299 435 237 q 435 125 383 62 q 331 0 237 0 z m 101 430 l 101 39 l 212 39 q 252 39 281 46 q 310 52 336 77 q 362 101 375 141 q 389 182 389 240 q 389 430 212 430 z"},"^":{"x_min":0,"x_max":433,"ha":433,"o":"m 358 305 l 337 288 l 215 435 l 92 288 l 72 305 l 215 477 z"},"0":{"x_min":0,"x_max":365,"ha":365,"o":"m 329 230 q 329 -8 181 -8 q 32 -8 32 222 q 32 288 41 335 q 50 382 69 411 q 87 440 115 455 q 143 469 181 469 q 329 469 329 230 z m 288 230 q 288 437 181 437 q 154 437 133 424 q 112 412 99 387 q 85 362 80 323 q 74 284 74 228 q 74 179 79 143 q 83 108 95 81 q 107 55 129 40 q 151 25 183 25 q 288 25 288 230 z"},"F":{"x_min":0,"x_max":365,"ha":365,"o":"m 334 430 l 101 430 l 101 260 l 300 260 l 300 221 l 101 221 l 101 0 l 57 0 l 57 469 l 334 469 z"},"`":{"x_min":0,"x_max":218,"ha":218,"o":"m 146 384 l 113 384 l 41 469 l 104 469 z"},"k":{"x_min":0,"x_max":328,"ha":328,"o":"m 325 0 l 273 0 l 143 186 l 93 140 l 93 0 l 52 0 l 52 469 l 93 469 l 93 182 l 258 340 l 314 340 l 173 213 z"},"u":{"x_min":0,"x_max":365,"ha":365,"o":"m 312 0 l 271 0 l 271 50 q 227 -8 162 -8 q 47 -8 47 118 l 47 340 l 87 340 l 87 129 q 87 73 108 50 q 130 27 166 27 q 190 27 210 37 q 231 47 247 68 q 263 88 267 115 q 271 143 271 192 l 271 340 l 312 340 z"},"]":{"x_min":0,"x_max":218,"ha":218,"o":"m 168 -98 l 17 -98 l 17 -64 l 128 -64 l 128 469 l 17 469 l 17 503 l 168 503 z"},"U":{"x_min":0,"x_max":473,"ha":473,"o":"m 56 469 l 101 469 l 101 169 q 101 29 236 29 q 370 29 370 168 l 370 469 l 415 469 l 415 172 q 415 -8 237 -8 q 56 -8 56 172 z"},"o":{"x_min":0,"x_max":365,"ha":365,"o":"m 332 169 q 332 85 292 39 q 253 -8 180 -8 q 145 -8 118 5 q 90 17 70 41 q 49 65 39 97 q 29 129 29 168 q 29 208 38 240 q 47 272 65 295 q 83 319 110 333 q 137 347 180 347 q 250 347 291 302 q 332 257 332 169 z m 291 169 q 291 215 277 248 q 264 281 240 297 q 216 314 182 314 q 129 314 100 276 q 71 237 71 171 q 71 106 100 65 q 130 25 182 25 q 207 25 226 34 q 245 42 260 61 q 275 80 283 107 q 291 135 291 169 z"},"N":{"x_min":0,"x_max":473,"ha":473,"o":"m 415 0 l 368 0 l 97 400 l 101 0 l 56 0 l 56 469 l 101 469 l 374 65 l 371 469 l 415 469 z"},"+":{"x_min":0,"x_max":433,"ha":433,"o":"m 386 216 l 230 216 l 230 59 l 200 59 l 200 216 l 43 216 l 43 245 l 200 245 l 200 402 l 230 402 l 230 245 l 386 245 z"},"G":{"x_min":0,"x_max":510,"ha":510,"o":"m 468 60 q 375 -8 273 -8 q 236 -8 204 0 q 172 8 145 24 q 118 40 95 64 q 73 88 61 112 q 50 135 44 165 q 38 194 38 229 q 38 307 66 362 q 94 417 146 447 q 198 477 271 477 q 345 477 394 444 q 442 411 461 343 l 418 330 q 382 440 268 440 q 183 440 133 384 q 83 328 83 233 q 83 176 104 130 q 125 85 167 57 q 209 29 269 29 q 354 29 424 80 l 424 195 l 275 195 l 275 234 l 468 234 z"},"q":{"x_min":0,"x_max":400,"ha":400,"o":"m 350 -130 l 310 -130 l 310 52 q 256 -8 183 -8 q 148 -8 121 4 q 94 16 73 41 q 52 65 42 99 q 31 132 31 173 q 31 249 71 298 q 110 347 183 347 q 262 347 310 284 l 310 340 l 350 340 z m 311 171 q 311 236 277 275 q 243 314 187 314 q 134 314 103 273 q 73 232 73 169 q 73 108 104 67 q 136 25 189 25 q 247 25 279 64 q 311 102 311 171 z"},"d":{"x_min":0,"x_max":400,"ha":400,"o":"m 350 0 l 310 0 l 310 52 q 256 -8 182 -8 q 147 -8 120 5 q 92 17 72 42 q 52 67 41 100 q 31 133 31 173 q 31 249 71 298 q 110 347 183 347 q 262 347 310 284 l 310 469 l 350 469 z m 311 171 q 311 236 277 275 q 243 314 187 314 q 134 314 103 273 q 73 232 73 169 q 73 108 104 67 q 136 25 189 25 q 247 25 279 64 q 311 102 311 171 z"},"1":{"x_min":0,"x_max":365,"ha":365,"o":"m 233 0 l 193 0 l 193 392 q 140 342 74 317 l 74 352 q 174 407 206 469 l 233 469 z"},"5":{"x_min":0,"x_max":365,"ha":365,"o":"m 32 116 l 72 121 q 92 25 181 25 q 209 25 233 39 q 257 52 274 81 q 291 110 291 150 q 291 201 261 234 q 230 267 183 267 q 128 267 75 215 l 42 220 l 86 463 l 312 463 l 312 426 l 116 426 l 86 266 q 138 302 189 302 q 250 302 292 259 q 333 216 333 154 q 333 121 321 92 q 310 62 289 40 q 269 18 239 5 q 209 -8 174 -8 q 63 -8 32 116 z"}}}
